<svg width="100" height="100" viewBox="0 0 100 100" fill="none" xmlns="http://www.w3.org/2000/svg">
<rect width="100" height="100" fill="#03272A"/>
<path opacity="0.5" d="M45.1875 43.125H34.1875C32.6687 43.125 31.4375 44.3562 31.4375 45.875V56.875C31.4375 58.3938 32.6687 59.625 34.1875 59.625H45.1875C46.7063 59.625 47.9375 58.3938 47.9375 56.875V45.875C47.9375 44.3562 46.7063 43.125 45.1875 43.125Z" fill="#4FE5B5"/>
<path d="M57.1088 65.1298C56.3049 65.1295 55.5246 64.8578 54.8945 64.3586C54.2643 63.8595 53.8212 63.1622 53.6369 62.3798L52.3925 57.2854C52.3524 57.0408 52.2267 56.8184 52.0378 56.6579C51.8489 56.4975 51.6091 56.4093 51.3612 56.4093C51.1134 56.4093 50.8736 56.4975 50.6847 56.6579C50.4958 56.8184 50.3701 57.0408 50.33 57.2854L49.1131 62.3798C48.9188 63.1667 48.4629 63.8642 47.8201 64.358C47.1773 64.8518 46.3858 65.1125 45.5754 65.0973C44.7649 65.0821 43.9837 64.7919 43.3599 64.2744C42.736 63.7569 42.3065 63.0428 42.1419 62.2491C41.7363 60.2966 41.1519 57.4366 40.6844 55.161C40.3396 53.3225 39.5487 51.5968 38.3813 50.1354C36.827 48.236 36.0858 45.7998 36.3188 43.3566C36.5375 41.192 37.4972 39.1694 39.0356 37.631C40.5741 36.0926 42.5966 35.1329 44.7613 34.9141C46.0705 34.7927 47.3906 34.9545 48.6319 35.3885C50.4119 36.0137 52.3518 36.0137 54.1319 35.3885C55.8569 34.7956 57.7181 34.7226 59.4843 35.1785C61.2504 35.6344 62.8437 36.5991 64.0662 37.9529C64.1628 38.0597 64.2233 38.1942 64.2394 38.3372C64.2554 38.4803 64.2261 38.6248 64.1556 38.7504C63.9222 39.176 63.6307 39.5671 63.2894 39.9123C62.9673 40.2314 62.6043 40.5065 62.21 40.7304C62.9983 41.1851 63.6528 41.8396 64.1075 42.6279C64.3298 42.2346 64.6051 41.8737 64.9256 41.5554C64.9747 41.5034 65.0275 41.4551 65.0837 41.411C65.1724 41.3403 65.2772 41.2926 65.3888 41.2722C65.5003 41.2519 65.6152 41.2594 65.7231 41.2941C65.8315 41.3285 65.9297 41.3891 66.0089 41.4707C66.0881 41.5523 66.1458 41.6523 66.1769 41.7616C66.578 43.2038 66.623 44.7217 66.3081 46.1851C65.9931 47.6484 65.3276 49.0135 64.3688 50.1629C63.2013 51.6243 62.4104 53.35 62.0656 55.1885C61.5981 57.4779 61 60.3173 60.6081 62.2766C60.4444 63.0834 60.0064 63.8085 59.3684 64.3286C58.7304 64.8488 57.9319 65.1319 57.1088 65.1298ZM51.375 55.1404C51.9181 55.134 52.4472 55.3131 52.8747 55.6481C53.3022 55.9831 53.6026 56.454 53.7262 56.9829L54.9706 62.0773C55.0897 62.5616 55.3698 62.9911 55.765 63.2954C56.1602 63.5997 56.6471 63.7606 57.1458 63.7518C57.6445 63.743 58.1254 63.565 58.5097 63.247C58.8939 62.929 59.1587 62.4899 59.2606 62.0016C59.6663 60.0491 60.2506 57.1891 60.7181 54.9135C61.1142 52.8651 62.0038 50.9442 63.31 49.3173C64.6273 47.7414 65.2784 45.7142 65.125 43.666C64.9045 44.145 64.7874 44.665 64.7812 45.1923C64.7812 45.3746 64.7088 45.5495 64.5799 45.6784C64.451 45.8073 64.2761 45.8798 64.0938 45.8798C63.9114 45.8798 63.7365 45.8073 63.6076 45.6784C63.4787 45.5495 63.4062 45.3746 63.4062 45.1923C63.4044 44.19 63.0055 43.2292 62.2967 42.5205C61.588 41.8118 60.6273 41.4128 59.625 41.411C59.4427 41.411 59.2678 41.3386 59.1389 41.2096C59.0099 41.0807 58.9375 40.9058 58.9375 40.7235C58.9375 40.5412 59.0099 40.3663 59.1389 40.2374C59.2678 40.1084 59.4427 40.036 59.625 40.036C60.6301 40.0367 61.5943 39.6386 62.3063 38.9291C62.4403 38.7958 62.5622 38.6509 62.6706 38.496C61.6186 37.4773 60.3057 36.7688 58.8767 36.4485C57.4477 36.1283 55.9581 36.2087 54.5719 36.681C52.5011 37.3992 50.2489 37.3992 48.1781 36.681C47.1217 36.3134 45.9986 36.1774 44.885 36.2823C43.0306 36.4615 41.296 37.2795 39.978 38.5962C38.66 39.913 37.8404 41.6468 37.6594 43.501C37.5575 44.54 37.6623 45.589 37.968 46.5872C38.2736 47.5855 38.7739 48.5134 39.44 49.3173C40.7497 50.9524 41.6395 52.8831 42.0319 54.941C42.4994 57.2373 43.0838 60.0835 43.4894 62.036C43.5651 62.403 43.7334 62.7445 43.9781 63.0282C44.2229 63.312 44.536 63.5285 44.8879 63.6572C45.2398 63.786 45.6187 63.8228 45.9888 63.764C46.3588 63.7053 46.7078 63.553 47.0025 63.3216C47.3917 63.0186 47.6658 62.5917 47.7794 62.1116L49.0237 57.0173C49.1406 56.482 49.4381 56.0033 49.8662 55.6615C50.2944 55.3197 50.8272 55.1357 51.375 55.1404Z" fill="white"/>
<path d="M51.375 40.8748C49.0204 40.8309 46.714 40.1999 44.665 39.0392C44.5405 38.9346 44.457 38.7894 44.4295 38.6291C44.4019 38.4689 44.432 38.3041 44.5144 38.164C44.5969 38.0239 44.7263 37.9175 44.8797 37.8637C45.0331 37.81 45.2006 37.8124 45.3525 37.8704C47.1989 38.892 49.2654 39.4511 51.375 39.4998C53.4753 39.4467 55.5318 38.8877 57.37 37.8704C57.4465 37.8062 57.5362 37.7594 57.6326 37.7333C57.7291 37.7072 57.8301 37.7025 57.9286 37.7194C58.0271 37.7364 58.1207 37.7746 58.2029 37.8314C58.2851 37.8882 58.3539 37.9623 58.4046 38.0484C58.4553 38.1345 58.4865 38.2307 58.4963 38.3301C58.506 38.4296 58.4939 38.53 58.4608 38.6243C58.4278 38.7186 58.3746 38.8046 58.3049 38.8762C58.2353 38.9479 58.1508 39.0035 58.0575 39.0392C56.0166 40.1955 53.7202 40.8263 51.375 40.8748Z" fill="white"/>
<path d="M64.0938 45.8798C63.9114 45.8798 63.7365 45.8073 63.6076 45.6784C63.4787 45.5495 63.4062 45.3746 63.4062 45.1923C63.4044 44.19 63.0055 43.2292 62.2967 42.5205C61.588 41.8118 60.6273 41.4128 59.625 41.411C59.4427 41.411 59.2678 41.3386 59.1389 41.2096C59.0099 41.0807 58.9375 40.9058 58.9375 40.7235C58.9375 40.5412 59.0099 40.3663 59.1389 40.2374C59.2678 40.1084 59.4427 40.036 59.625 40.036C60.6301 40.0367 61.5943 39.6386 62.3063 38.9291C62.5575 38.6731 62.7726 38.384 62.9456 38.0698C63.2495 37.5132 63.4079 36.8889 63.4062 36.2548C63.4062 36.0724 63.4787 35.8976 63.6076 35.7686C63.7365 35.6397 63.9114 35.5673 64.0938 35.5673C64.2761 35.5673 64.451 35.6397 64.5799 35.7686C64.7088 35.8976 64.7812 36.0724 64.7812 36.2548C64.7794 36.7518 64.876 37.2443 65.0654 37.7039C65.2548 38.1635 65.5332 38.5811 65.8847 38.9326C66.2362 39.284 66.6537 39.5625 67.1133 39.7519C67.5729 39.9413 68.0654 40.0378 68.5625 40.036C68.7448 40.036 68.9197 40.1084 69.0486 40.2374C69.1776 40.3663 69.25 40.5412 69.25 40.7235C69.25 40.9058 69.1776 41.0807 69.0486 41.2096C68.9197 41.3386 68.7448 41.411 68.5625 41.411C67.6246 41.4081 66.7196 41.7563 66.0256 42.3873L65.9363 42.4766C65.5715 42.8287 65.2813 43.2506 65.0829 43.7171C64.8845 44.1836 64.7819 44.6853 64.7812 45.1923C64.7812 45.3746 64.7088 45.5495 64.5799 45.6784C64.451 45.8073 64.2761 45.8798 64.0938 45.8798ZM62.1963 40.7235C62.9845 41.1782 63.639 41.8327 64.0938 42.621C64.316 42.2277 64.5913 41.8668 64.9119 41.5485L65.0012 41.4591C65.2908 41.1953 65.6091 40.9647 65.95 40.7716C65.1655 40.3173 64.5137 39.6655 64.0594 38.881C63.8317 39.2707 63.5569 39.6309 63.2412 39.9535C62.9269 40.2533 62.5757 40.5121 62.1963 40.7235Z" fill="#4FE5B5"/>
</svg>
