<svg width="100" height="100" viewBox="0 0 100 100" fill="none" xmlns="http://www.w3.org/2000/svg">
<rect width="100" height="100" fill="#03272A"/>
<path opacity="0.5" d="M56.875 53.4375H45.875C44.3562 53.4375 43.125 54.6687 43.125 56.1875V67.1875C43.125 68.7063 44.3562 69.9375 45.875 69.9375H56.875C58.3938 69.9375 59.625 68.7063 59.625 67.1875V56.1875C59.625 54.6687 58.3938 53.4375 56.875 53.4375Z" fill="#4FE5B5"/>
<path d="M54.4 63.0625H32.8125C32.6302 63.0625 32.4553 62.9901 32.3264 62.8611C32.1974 62.7322 32.125 62.5573 32.125 62.375V40.375C32.125 40.1927 32.1974 40.0178 32.3264 39.8889C32.4553 39.7599 32.6302 39.6875 32.8125 39.6875H61C61.1823 39.6875 61.3572 39.7599 61.4861 39.8889C61.6151 40.0178 61.6875 40.1927 61.6875 40.375V52.365C61.6944 52.5166 61.651 52.6663 61.5639 52.7907C61.4769 52.9151 61.3511 53.0071 61.2062 53.0525C60.1073 53.3911 58.9286 53.367 57.8444 52.9838C57.7068 52.939 57.5668 52.9023 57.425 52.8738C57.0452 52.7666 56.65 52.7248 56.2562 52.75C55.8556 52.7809 55.4629 52.8785 55.0944 53.0387C54.4506 53.3131 53.893 53.7563 53.4803 54.3214C53.0677 54.8866 52.8153 55.5527 52.75 56.2494C52.6557 57.2569 52.9648 58.2606 53.6094 59.0406C54.3197 59.9409 54.8073 60.9962 55.0325 62.1206V62.265C55.0482 62.3637 55.0422 62.4647 55.0149 62.5609C54.9876 62.6571 54.9396 62.7461 54.8744 62.8219C54.8152 62.8915 54.7428 62.9486 54.6614 62.9899C54.58 63.0312 54.4911 63.0559 54.4 63.0625ZM33.5 61.6875H53.5131C53.3107 61.0435 52.9914 60.4422 52.5712 59.9137C52.0548 59.2893 51.6911 58.553 51.509 57.7634C51.327 56.9738 51.3316 56.1526 51.5224 55.365C51.7133 54.5775 52.0852 53.8453 52.6086 53.2267C53.132 52.608 53.7925 52.12 54.5375 51.8012C55.044 51.5709 55.5854 51.4268 56.1394 51.375C56.6689 51.324 57.2032 51.3612 57.7206 51.485C57.9136 51.5242 58.1042 51.5747 58.2912 51.6363C58.9389 51.8668 59.6352 51.926 60.3125 51.8081V41.0625H33.5V61.6875Z" fill="white"/>
<path d="M61 41.0625H32.8125C32.6302 41.0625 32.4553 40.9901 32.3264 40.8611C32.1974 40.7322 32.125 40.5573 32.125 40.375V34.875C32.125 34.6927 32.1974 34.5178 32.3264 34.3889C32.4553 34.2599 32.6302 34.1875 32.8125 34.1875H61C61.1823 34.1875 61.3572 34.2599 61.4861 34.3889C61.6151 34.5178 61.6875 34.6927 61.6875 34.875V40.375C61.6875 40.5573 61.6151 40.7322 61.4861 40.8611C61.3572 40.9901 61.1823 41.0625 61 41.0625ZM33.5 39.6875H60.3125V35.5625H33.5V39.6875Z" fill="white"/>
<path d="M36.9375 37.625C36.7552 37.625 36.5803 37.5526 36.4514 37.4236C36.3224 37.2947 36.25 37.1198 36.25 36.9375V32.8125C36.25 32.6302 36.3224 32.4553 36.4514 32.3264C36.5803 32.1974 36.7552 32.125 36.9375 32.125C37.1198 32.125 37.2947 32.1974 37.4236 32.3264C37.5526 32.4553 37.625 32.6302 37.625 32.8125V36.9375C37.625 37.1198 37.5526 37.2947 37.4236 37.4236C37.2947 37.5526 37.1198 37.625 36.9375 37.625Z" fill="white"/>
<path d="M41.0625 37.625C40.8802 37.625 40.7053 37.5526 40.5764 37.4236C40.4474 37.2947 40.375 37.1198 40.375 36.9375V32.8125C40.375 32.6302 40.4474 32.4553 40.5764 32.3264C40.7053 32.1974 40.8802 32.125 41.0625 32.125C41.2448 32.125 41.4197 32.1974 41.5486 32.3264C41.6776 32.4553 41.75 32.6302 41.75 32.8125V36.9375C41.75 37.1198 41.6776 37.2947 41.5486 37.4236C41.4197 37.5526 41.2448 37.625 41.0625 37.625Z" fill="white"/>
<path d="M52.75 37.625C52.5677 37.625 52.3928 37.5526 52.2639 37.4236C52.1349 37.2947 52.0625 37.1198 52.0625 36.9375V32.8125C52.0625 32.6302 52.1349 32.4553 52.2639 32.3264C52.3928 32.1974 52.5677 32.125 52.75 32.125C52.9323 32.125 53.1072 32.1974 53.2361 32.3264C53.3651 32.4553 53.4375 32.6302 53.4375 32.8125V36.9375C53.4375 37.1198 53.3651 37.2947 53.2361 37.4236C53.1072 37.5526 52.9323 37.625 52.75 37.625Z" fill="white"/>
<path d="M56.875 37.625C56.6927 37.625 56.5178 37.5526 56.3889 37.4236C56.2599 37.2947 56.1875 37.1198 56.1875 36.9375V32.8125C56.1875 32.6302 56.2599 32.4553 56.3889 32.3264C56.5178 32.1974 56.6927 32.125 56.875 32.125C57.0573 32.125 57.2322 32.1974 57.3611 32.3264C57.4901 32.4553 57.5625 32.6302 57.5625 32.8125V36.9375C57.5625 37.1198 57.4901 37.2947 57.3611 37.4236C57.2322 37.5526 57.0573 37.625 56.875 37.625Z" fill="white"/>
<path d="M45.1875 47.25H42.4375C42.2552 47.25 42.0803 47.1776 41.9514 47.0486C41.8224 46.9197 41.75 46.7448 41.75 46.5625V43.8125C41.75 43.6302 41.8224 43.4553 41.9514 43.3264C42.0803 43.1974 42.2552 43.125 42.4375 43.125H45.1875C45.3698 43.125 45.5447 43.1974 45.6736 43.3264C45.8026 43.4553 45.875 43.6302 45.875 43.8125V46.5625C45.875 46.7448 45.8026 46.9197 45.6736 47.0486C45.5447 47.1776 45.3698 47.25 45.1875 47.25ZM43.125 45.875H44.5V44.5H43.125V45.875Z" fill="white"/>
<path d="M51.375 47.25H48.625C48.4427 47.25 48.2678 47.1776 48.1389 47.0486C48.0099 46.9197 47.9375 46.7448 47.9375 46.5625V43.8125C47.9375 43.6302 48.0099 43.4553 48.1389 43.3264C48.2678 43.1974 48.4427 43.125 48.625 43.125H51.375C51.5573 43.125 51.7322 43.1974 51.8611 43.3264C51.9901 43.4553 52.0625 43.6302 52.0625 43.8125V46.5625C52.0625 46.7448 51.9901 46.9197 51.8611 47.0486C51.7322 47.1776 51.5573 47.25 51.375 47.25ZM49.3125 45.875H50.6875V44.5H49.3125V45.875Z" fill="white"/>
<path d="M57.5625 47.25H54.8125C54.6302 47.25 54.4553 47.1776 54.3264 47.0486C54.1974 46.9197 54.125 46.7448 54.125 46.5625V43.8125C54.125 43.6302 54.1974 43.4553 54.3264 43.3264C54.4553 43.1974 54.6302 43.125 54.8125 43.125H57.5625C57.7448 43.125 57.9197 43.1974 58.0486 43.3264C58.1776 43.4553 58.25 43.6302 58.25 43.8125V46.5625C58.25 46.7448 58.1776 46.9197 58.0486 47.0486C57.9197 47.1776 57.7448 47.25 57.5625 47.25ZM55.5 45.875H56.875V44.5H55.5V45.875Z" fill="white"/>
<path d="M39 53.4375H36.25C36.0677 53.4375 35.8928 53.3651 35.7639 53.2361C35.6349 53.1072 35.5625 52.9323 35.5625 52.75V50C35.5625 49.8177 35.6349 49.6428 35.7639 49.5139C35.8928 49.3849 36.0677 49.3125 36.25 49.3125H39C39.1823 49.3125 39.3572 49.3849 39.4861 49.5139C39.6151 49.6428 39.6875 49.8177 39.6875 50V52.75C39.6875 52.9323 39.6151 53.1072 39.4861 53.2361C39.3572 53.3651 39.1823 53.4375 39 53.4375ZM36.9375 52.0625H38.3125V50.6875H36.9375V52.0625Z" fill="white"/>
<path d="M45.1875 53.4375H42.4375C42.2552 53.4375 42.0803 53.3651 41.9514 53.2361C41.8224 53.1072 41.75 52.9323 41.75 52.75V50C41.75 49.8177 41.8224 49.6428 41.9514 49.5139C42.0803 49.3849 42.2552 49.3125 42.4375 49.3125H45.1875C45.3698 49.3125 45.5447 49.3849 45.6736 49.5139C45.8026 49.6428 45.875 49.8177 45.875 50V52.75C45.875 52.9323 45.8026 53.1072 45.6736 53.2361C45.5447 53.3651 45.3698 53.4375 45.1875 53.4375ZM43.125 52.0625H44.5V50.6875H43.125V52.0625Z" fill="white"/>
<path d="M51.375 53.4375H48.625C48.4427 53.4375 48.2678 53.3651 48.1389 53.2361C48.0099 53.1072 47.9375 52.9323 47.9375 52.75V50C47.9375 49.8177 48.0099 49.6428 48.1389 49.5139C48.2678 49.3849 48.4427 49.3125 48.625 49.3125H51.375C51.5573 49.3125 51.7322 49.3849 51.8611 49.5139C51.9901 49.6428 52.0625 49.8177 52.0625 50V52.75C52.0625 52.9323 51.9901 53.1072 51.8611 53.2361C51.7322 53.3651 51.5573 53.4375 51.375 53.4375ZM49.3125 52.0625H50.6875V50.6875H49.3125V52.0625Z" fill="white"/>
<path d="M39 59.625H36.25C36.0677 59.625 35.8928 59.5526 35.7639 59.4236C35.6349 59.2947 35.5625 59.1198 35.5625 58.9375V56.1875C35.5625 56.0052 35.6349 55.8303 35.7639 55.7014C35.8928 55.5724 36.0677 55.5 36.25 55.5H39C39.1823 55.5 39.3572 55.5724 39.4861 55.7014C39.6151 55.8303 39.6875 56.0052 39.6875 56.1875V58.9375C39.6875 59.1198 39.6151 59.2947 39.4861 59.4236C39.3572 59.5526 39.1823 59.625 39 59.625ZM36.9375 58.25H38.3125V56.875H36.9375V58.25Z" fill="white"/>
<path d="M45.1875 59.625H42.4375C42.2552 59.625 42.0803 59.5526 41.9514 59.4236C41.8224 59.2947 41.75 59.1198 41.75 58.9375V56.1875C41.75 56.0052 41.8224 55.8303 41.9514 55.7014C42.0803 55.5724 42.2552 55.5 42.4375 55.5H45.1875C45.3698 55.5 45.5447 55.5724 45.6736 55.7014C45.8026 55.8303 45.875 56.0052 45.875 56.1875V58.9375C45.875 59.1198 45.8026 59.2947 45.6736 59.4236C45.5447 59.5526 45.3698 59.625 45.1875 59.625ZM43.125 58.25H44.5V56.875H43.125V58.25Z" fill="white"/>
<path d="M62.6294 67.875C62.1363 67.8765 61.6571 67.7117 61.2692 67.4073C60.8812 67.103 60.6072 66.6768 60.4912 66.1975L59.845 63.5369C59.8326 63.4879 59.8043 63.4444 59.7645 63.4133C59.7246 63.3823 59.6755 63.3654 59.625 63.3654C59.5745 63.3654 59.5254 63.3823 59.4855 63.4133C59.4457 63.4444 59.4173 63.4879 59.405 63.5369L58.7587 66.1975C58.6402 66.6754 58.3671 67.1008 57.9819 67.4075C57.6871 67.6389 57.3382 67.7912 56.9681 67.8499C56.5981 67.9086 56.2191 67.8719 55.8673 67.7431C55.5154 67.6143 55.2022 67.3978 54.9575 67.1141C54.7127 66.8304 54.5445 66.4888 54.4687 66.1219L54.2006 64.8156C54.0494 64.0594 53.8775 63.2412 53.7262 62.5194V62.4094C53.5486 61.5002 53.1601 60.6454 52.5919 59.9137C52.0754 59.2893 51.7117 58.553 51.5297 57.7634C51.3476 56.9738 51.3522 56.1526 51.5431 55.365C51.7339 54.5775 52.1058 53.8453 52.6292 53.2267C53.1526 52.608 53.8131 52.1199 54.5581 51.8012C55.0581 51.5731 55.5924 51.429 56.1394 51.375C56.6689 51.324 57.2032 51.3612 57.7206 51.485C57.9136 51.5242 58.1042 51.5747 58.2912 51.6362C59.098 51.9222 59.9752 51.9415 60.7937 51.6912L60.9106 51.65L61.2406 51.5469H61.3231C61.9084 51.3824 62.5185 51.3242 63.1244 51.375C63.6384 51.4129 64.1426 51.536 64.6162 51.7394C65.0556 51.9075 65.4679 52.1391 65.84 52.4269C66.4169 52.8688 66.8957 53.4258 67.246 54.0625C67.5963 54.6992 67.8105 55.4018 67.875 56.1256C67.9989 57.4961 67.5763 58.8601 66.6994 59.9206C66.363 60.3343 66.0939 60.7983 65.9019 61.2956C65.7541 61.6552 65.6413 62.0282 65.565 62.4094C65.4069 63.1794 65.2212 64.0731 65.0494 64.8844C64.96 65.3519 64.8775 65.7644 64.8019 66.1287C64.7807 66.2416 64.7485 66.3522 64.7056 66.4587C64.5615 66.8229 64.3244 67.1429 64.0181 67.3869C63.6261 67.7062 63.135 67.8789 62.6294 67.875ZM59.625 61.99C59.9839 61.9853 60.3336 62.1034 60.6162 62.3248C60.8988 62.5461 61.0973 62.8573 61.1787 63.2069L61.825 65.8675C61.8683 66.0481 61.9713 66.2087 62.1173 66.3235C62.2632 66.4383 62.4437 66.5005 62.6294 66.5C62.8149 66.5031 62.9953 66.4397 63.1381 66.3212C63.2537 66.2314 63.3438 66.1129 63.3994 65.9775C63.3994 65.9775 63.3994 65.9087 63.3994 65.8744C63.4819 65.4894 63.5644 65.0906 63.6469 64.6575C63.8256 63.7981 64.0112 62.9044 64.1694 62.1275C64.2598 61.6563 64.398 61.1956 64.5819 60.7525C64.8251 60.1231 65.1661 59.5361 65.5925 59.0131C66.2474 58.2475 66.5736 57.2542 66.5 56.2494C66.4494 55.7236 66.2915 55.2138 66.036 54.7514C65.7806 54.2891 65.4331 53.884 65.015 53.5612C64.741 53.3418 64.4349 53.1655 64.1075 53.0387C63.7594 52.8821 63.3876 52.7845 63.0075 52.75C62.5649 52.7024 62.1173 52.7373 61.6875 52.8531H61.6119L61.4194 52.915H61.3506L61.1512 52.9769C60.0684 53.3033 58.9095 53.2744 57.8444 52.8944C57.7068 52.8496 57.5668 52.8129 57.425 52.7844C57.0401 52.7072 56.645 52.6956 56.2562 52.75C55.8556 52.7809 55.4629 52.8785 55.0944 53.0387C54.4506 53.3131 53.893 53.7563 53.4803 54.3214C53.0677 54.8866 52.8153 55.5527 52.75 56.2494C52.6557 57.2569 52.9648 58.2606 53.6094 59.0406C54.3197 59.9409 54.8073 60.9962 55.0325 62.1206V62.265C55.1769 62.9525 55.3419 63.7844 55.5 64.5406L55.7681 65.8469C55.8003 66.0376 55.8985 66.2109 56.0456 66.3366C56.1926 66.4622 56.3791 66.5322 56.5725 66.5344C56.7544 66.5355 56.9313 66.4749 57.0744 66.3625C57.2233 66.2495 57.3299 66.0897 57.3769 65.9087L58.0231 63.2412C58.0992 62.877 58.3018 62.5515 58.5951 62.3225C58.8883 62.0934 59.2532 61.9756 59.625 61.99Z" fill="#4FE5B5"/>
<path d="M59.625 55.6444C58.4698 55.6075 57.3481 55.2479 56.3869 54.6062C56.3096 54.5551 56.2435 54.4889 56.1924 54.4116C56.1414 54.3342 56.1065 54.2474 56.0899 54.1562C56.0733 54.0651 56.0752 53.9715 56.0957 53.8812C56.1161 53.7908 56.1546 53.7055 56.2089 53.6304C56.2631 53.5553 56.332 53.4919 56.4114 53.4441C56.4907 53.3962 56.5789 53.3649 56.6707 53.3521C56.7624 53.3392 56.8558 53.345 56.9453 53.3691C57.0347 53.3933 57.1184 53.4352 57.1912 53.4925C57.9177 53.966 58.7586 54.2344 59.625 54.2694C60.4914 54.2344 61.3323 53.966 62.0587 53.4925C62.1316 53.4352 62.2152 53.3933 62.3047 53.3691C62.3941 53.345 62.4875 53.3392 62.5793 53.3521C62.671 53.3649 62.7592 53.3962 62.8386 53.4441C62.918 53.4919 62.9868 53.5553 63.0411 53.6304C63.0953 53.7055 63.1338 53.7908 63.1543 53.8812C63.1747 53.9715 63.1767 54.0651 63.1601 54.1562C63.1435 54.2474 63.1086 54.3342 63.0575 54.4116C63.0065 54.4889 62.9404 54.5551 62.8631 54.6062C61.9019 55.2479 60.7801 55.6075 59.625 55.6444Z" fill="#4FE5B5"/>
</svg>
