<svg width="100" height="100" viewBox="0 0 100 100" fill="none" xmlns="http://www.w3.org/2000/svg">
<rect width="100" height="100" fill="#03272A"/>
<path d="M57.0833 62.75V59.9167C57.0833 58.4138 56.4863 56.9724 55.4236 55.9097C54.3609 54.847 52.9196 54.25 51.4167 54.25H40.0833C38.5804 54.25 37.1391 54.847 36.0764 55.9097C35.0137 56.9724 34.4167 58.4138 34.4167 59.9167V62.75" stroke="white" stroke-width="2" stroke-linecap="round" stroke-linejoin="round"/>
<path d="M45.75 48.5833C48.8796 48.5833 51.4167 46.0463 51.4167 42.9167C51.4167 39.7871 48.8796 37.25 45.75 37.25C42.6204 37.25 40.0833 39.7871 40.0833 42.9167C40.0833 46.0463 42.6204 48.5833 45.75 48.5833Z" fill="white" stroke="white" stroke-width="2" stroke-linecap="round" stroke-linejoin="round"/>
<path d="M65.5833 62.7499V59.9166C65.5824 58.661 65.1645 57.4413 64.3953 56.449C63.626 55.4567 62.549 54.748 61.3333 54.4341" stroke="white" stroke-width="2" stroke-linecap="round" stroke-linejoin="round"/>
<path d="M55.6667 37.4341C56.8856 37.7462 57.966 38.4551 58.7375 39.449C59.509 40.443 59.9278 41.6654 59.9278 42.9237C59.9278 44.1819 59.509 45.4044 58.7375 46.3983C57.966 47.3923 56.8856 48.1012 55.6667 48.4132" stroke="white" stroke-width="2" stroke-linecap="round" stroke-linejoin="round"/>
</svg>
