<svg width="100" height="100" viewBox="0 0 100 100" fill="none" xmlns="http://www.w3.org/2000/svg">
<rect width="100" height="100" fill="#03272A"/>
<path opacity="0.5" d="M59.625 53.4375H48.625C47.1062 53.4375 45.875 54.6687 45.875 56.1875V67.1875C45.875 68.7063 47.1062 69.9375 48.625 69.9375H59.625C61.1438 69.9375 62.375 68.7063 62.375 67.1875V56.1875C62.375 54.6687 61.1438 53.4375 59.625 53.4375Z" fill="#4FE5B5"/>
<path d="M56.8269 67.875C55.9035 67.8755 55.0067 67.5661 54.2801 66.9965C53.5534 66.4269 53.0388 65.6299 52.8187 64.7332L51.3337 58.6694C51.2592 58.3721 51.0875 58.1082 50.8459 57.9197C50.6042 57.7311 50.3065 57.6287 50 57.6287C49.6935 57.6287 49.3958 57.7311 49.1541 57.9197C48.9125 58.1082 48.7408 58.3721 48.6662 58.6694L47.1812 64.7332C46.968 65.6314 46.4536 66.4296 45.7237 66.995C45.1714 67.4287 44.5176 67.7141 43.8241 67.8244C43.1306 67.9346 42.4205 67.866 41.7609 67.6251C41.1013 67.3841 40.5142 66.9787 40.0551 66.4474C39.596 65.9161 39.2802 65.2763 39.1375 64.5888L37.3981 56.1463C36.9927 53.9384 36.048 51.8649 34.6481 50.11C32.8094 47.8793 31.9228 45.0144 32.18 42.135C32.3302 40.4763 32.8552 38.8734 33.7152 37.4471C34.5753 36.0208 35.748 34.8084 37.1449 33.9015C38.5418 32.9945 40.1264 32.4165 41.7792 32.2112C43.432 32.0059 45.1099 32.1786 46.6862 32.7163C48.8283 33.4727 51.1648 33.4727 53.3069 32.7163C54.8844 32.1748 56.5644 31.9992 58.2199 32.2026C59.8753 32.4061 61.4628 32.9834 62.8623 33.8907C64.2617 34.7981 65.4365 36.0118 66.2978 37.4401C67.1591 38.8684 67.6843 40.4739 67.8337 42.135C68.0891 45.0121 67.2026 47.8742 65.3656 50.1032C64.956 50.5999 64.5902 51.1313 64.2725 51.6913C64.1932 51.8298 64.0682 51.9364 63.919 51.9929C63.7697 52.0493 63.6055 52.0521 63.4544 52.0007L61.6875 51.4094L56.1875 53.245V58.8C56.1628 60.1249 56.4632 61.4355 57.0625 62.6173C57.6617 63.7991 58.5416 64.8159 59.625 65.5788C59.7084 65.6343 59.7788 65.7073 59.831 65.7928C59.8833 65.8783 59.9162 65.9742 59.9275 66.0738C59.9394 66.173 59.9296 66.2735 59.8988 66.3685C59.8679 66.4635 59.8167 66.5506 59.7487 66.6238C59.6457 66.7341 59.5354 66.8374 59.4187 66.9332C58.6884 67.5352 57.7733 67.8677 56.8269 67.875ZM50 56.2425C50.6173 56.2347 51.2186 56.4385 51.7039 56.82C52.1893 57.2016 52.5293 57.7378 52.6675 58.3394L54.125 64.4375C54.2252 64.8466 54.418 65.2272 54.6886 65.5499C54.9592 65.8726 55.3003 66.1289 55.6856 66.299C56.0709 66.469 56.4901 66.5483 56.9108 66.5307C57.3316 66.5132 57.7427 66.3992 58.1125 66.1975C57.0579 65.2784 56.2163 64.1404 55.6464 62.8628C55.0765 61.5853 54.7919 60.1988 54.8125 58.8V52.75C54.8047 52.6001 54.8461 52.4518 54.9306 52.3276C55.015 52.2035 55.1377 52.1104 55.28 52.0625L61.4675 50C61.6102 49.9518 61.7648 49.9518 61.9075 50L63.3719 50.4882C63.6546 50.0393 63.9669 49.6098 64.3069 49.2025C65.9172 47.2545 66.6909 44.7481 66.4587 42.2313C66.329 40.7777 65.8704 39.3727 65.1176 38.1225C64.3648 36.8723 63.3377 35.8096 62.1137 35.0148C60.8898 34.22 59.5011 33.714 58.0528 33.5349C56.6045 33.3559 55.1344 33.5085 53.7537 33.9813C51.3209 34.8301 48.6723 34.8301 46.2394 33.9813C44.8591 33.5098 43.3898 33.3581 41.9423 33.5378C40.4949 33.7175 39.1072 34.2237 37.8841 35.0184C36.661 35.813 35.6345 36.8752 34.8822 38.1248C34.1298 39.3743 33.6713 40.7785 33.5412 42.2313C33.3091 44.7481 34.0828 47.2545 35.6931 49.2025C37.2402 51.1323 38.2885 53.4131 38.7456 55.8438L40.485 64.2863C40.6088 64.9088 40.9441 65.4694 41.434 65.8729C41.924 66.2764 42.5384 66.4979 43.1731 66.5C43.7904 66.4986 44.3898 66.2932 44.8781 65.9157C45.3653 65.5473 45.7161 65.0273 45.875 64.4375L47.36 58.3669C47.4917 57.7648 47.8254 57.2258 48.3056 56.8394C48.7858 56.453 49.3836 56.2424 50 56.2425Z" fill="white"/>
<path d="M50 39.0001C47.2209 38.9489 44.4985 38.2045 42.08 36.8344C41.9867 36.7988 41.9022 36.7432 41.8325 36.6715C41.7629 36.5999 41.7097 36.5139 41.6766 36.4196C41.6436 36.3253 41.6315 36.2249 41.6412 36.1254C41.6509 36.026 41.6822 35.9298 41.7329 35.8437C41.7836 35.7576 41.8524 35.6835 41.9346 35.6267C42.0168 35.5699 42.1104 35.5317 42.2089 35.5147C42.3074 35.4978 42.4084 35.5025 42.5049 35.5286C42.6013 35.5546 42.691 35.6014 42.7675 35.6657C44.9845 36.8939 47.4662 37.5663 50 37.6251C52.5249 37.5648 54.9974 36.8924 57.205 35.6657C57.2815 35.6014 57.3712 35.5546 57.4676 35.5286C57.5641 35.5025 57.6651 35.4978 57.7636 35.5147C57.8621 35.5317 57.9557 35.5699 58.0379 35.6267C58.1201 35.6835 58.1889 35.7576 58.2396 35.8437C58.2903 35.9298 58.3215 36.026 58.3313 36.1254C58.341 36.2249 58.3289 36.3253 58.2959 36.4196C58.2628 36.5139 58.2096 36.5999 58.1399 36.6715C58.0703 36.7432 57.9858 36.7988 57.8925 36.8344C55.4821 38.2001 52.7698 38.9443 50 39.0001Z" fill="white"/>
<path d="M61.6875 67.875H61.5363C60.5912 67.6645 59.6936 67.2798 58.8894 66.7406C57.6127 65.8509 56.5736 64.6619 55.8628 63.2776C55.1521 61.8933 54.7915 60.356 54.8125 58.8V52.75C54.8047 52.6001 54.8461 52.4517 54.9306 52.3276C55.015 52.2035 55.1377 52.1104 55.28 52.0625L61.4675 50C61.6102 49.9518 61.7648 49.9518 61.9075 50L68.095 52.0625C68.2373 52.1104 68.36 52.2035 68.4445 52.3276C68.5289 52.4517 68.5703 52.6001 68.5625 52.75V58.8C68.5625 63.1863 65.7369 66.995 61.8388 67.8613L61.6875 67.875ZM56.1875 53.245V58.8C56.1628 60.1248 56.4632 61.4355 57.0625 62.6173C57.6617 63.7991 58.5416 64.8159 59.625 65.5788C60.2502 66.0098 60.9493 66.3221 61.6875 66.5C64.8844 65.7094 67.1875 62.5056 67.1875 58.8206V53.245L61.6875 51.4094L56.1875 53.245Z" fill="#4FE5B5"/>
<path d="M61 61C60.9095 61.0005 60.8198 60.9832 60.7361 60.949C60.6523 60.9148 60.5761 60.8643 60.5119 60.8006L59.1369 59.4256C59.0074 59.2962 58.9347 59.1206 58.9347 58.9375C58.9347 58.7544 59.0074 58.5788 59.1369 58.4494C59.2663 58.3199 59.4419 58.2472 59.625 58.2472C59.8081 58.2472 59.9837 58.3199 60.1131 58.4494L61 59.3431L63.9494 56.3869C64.0788 56.2574 64.2544 56.1847 64.4375 56.1847C64.6206 56.1847 64.7962 56.2574 64.9256 56.3869C65.0551 56.5163 65.1278 56.6919 65.1278 56.875C65.1278 57.0581 65.0551 57.2337 64.9256 57.3631L61.4881 60.8006C61.4239 60.8643 61.3477 60.9148 61.2639 60.949C61.1802 60.9832 61.0905 61.0005 61 61Z" fill="#4FE5B5"/>
</svg>
