<svg width="44" height="44" viewBox="0 0 44 44" fill="none" xmlns="http://www.w3.org/2000/svg">
<rect width="44" height="44" fill="#053B3F"/>
<g clip-path="url(#clip0_1_463)">
<path d="M25.75 14.5H18.25C16.1789 14.5 14.5 16.1789 14.5 18.25V25.75C14.5 27.8211 16.1789 29.5 18.25 29.5H25.75C27.8211 29.5 29.5 27.8211 29.5 25.75V18.25C29.5 16.1789 27.8211 14.5 25.75 14.5Z" stroke="white" stroke-width="2" stroke-linecap="round" stroke-linejoin="round"/>
<path d="M25 21.5275C25.0926 22.1517 24.9859 22.7891 24.6953 23.3492C24.4047 23.9093 23.9449 24.3635 23.3812 24.6472C22.8176 24.9309 22.1788 25.0297 21.5558 24.9294C20.9328 24.8292 20.3573 24.535 19.9111 24.0889C19.4649 23.6427 19.1708 23.0671 19.0705 22.4441C18.9703 21.8211 19.069 21.1824 19.3527 20.6188C19.6364 20.0551 20.0906 19.5953 20.6507 19.3047C21.2108 19.014 21.8483 18.9074 22.4725 19C23.1092 19.0944 23.6986 19.3911 24.1538 19.8462C24.6089 20.3013 24.9056 20.8908 25 21.5275Z" stroke="white" stroke-width="2" stroke-linecap="round" stroke-linejoin="round"/>
<path d="M26.125 17.875H26.135" stroke="white" stroke-width="2" stroke-linecap="round" stroke-linejoin="round"/>
</g>
<defs>
<clipPath id="clip0_1_463">
<rect width="18" height="18" fill="white" transform="translate(13 13)"/>
</clipPath>
</defs>
</svg>
