<svg width="84" height="67" viewBox="0 0 84 67" fill="none" xmlns="http://www.w3.org/2000/svg">
<path d="M84 67H51.7302C48.4457 57.0741 46.8035 46.8173 46.8035 36.2296C46.8035 25.642 49.6774 16.9568 55.4252 10.1741C61.3372 3.39136 69.9589 0 81.2903 0V16.1296C72.7507 16.1296 68.4809 21.5889 68.4809 32.5074V36.4778H84V67ZM37.1965 67H4.92669C1.64223 57.0741 0 46.8173 0 36.2296C0 25.642 2.8739 16.9568 8.6217 10.1741C14.5337 3.39136 23.1554 0 34.4868 0V16.1296C25.9472 16.1296 21.6774 21.5889 21.6774 32.5074V36.4778H37.1965V67Z" fill="#4FE5B5"/>
</svg>
