<svg width="100" height="100" viewBox="0 0 100 100" fill="none" xmlns="http://www.w3.org/2000/svg">
<rect width="100" height="100" fill="#03272A"/>
<path opacity="0.5" d="M46.5625 43.8125H35.5625C34.0437 43.8125 32.8125 45.0437 32.8125 46.5625V57.5625C32.8125 59.0813 34.0437 60.3125 35.5625 60.3125H46.5625C48.0813 60.3125 49.3125 59.0813 49.3125 57.5625V46.5625C49.3125 45.0437 48.0813 43.8125 46.5625 43.8125Z" fill="#4FE5B5"/>
<path d="M57.7756 52.75H42.2244C41.4726 52.7551 40.7378 52.5263 40.1218 52.0951C39.5059 51.664 39.0394 51.0519 38.7869 50.3437C38.6425 49.9381 38.4912 49.3675 38.3194 48.7144C37.9619 47.4012 37.4806 45.5931 36.9856 44.9812C36.194 43.9953 35.6044 42.8631 35.2506 41.6492C34.8967 40.4354 34.7854 39.1637 34.9231 37.9069C35.1301 35.7332 36.0848 33.6986 37.6244 32.1502C39.164 30.6018 41.1931 29.6356 43.3656 29.4162C44.6795 29.2913 46.0048 29.4532 47.25 29.8906C49.0276 30.5299 50.9724 30.5299 52.75 29.8906C53.9995 29.4512 55.3297 29.2893 56.6481 29.4162C58.8169 29.6401 60.8412 30.6083 62.3766 32.1563C63.912 33.7042 64.8638 35.7363 65.07 37.9069C65.2077 39.1637 65.0965 40.4354 64.7426 41.6492C64.3887 42.8631 63.7991 43.9953 63.0075 44.9812C62.5125 45.5931 62.0312 47.4012 61.6737 48.7144C61.5019 49.3675 61.3506 49.9381 61.2062 50.3437C60.9541 51.0508 60.4886 51.6621 59.8741 52.0931C59.2595 52.5242 58.5263 52.7537 57.7756 52.75ZM44.225 30.75C43.9844 30.75 43.7369 30.75 43.4962 30.75C41.6437 30.9606 39.9191 31.7992 38.6094 33.1264C37.2998 34.4535 36.4841 36.1891 36.2981 38.0444C36.179 39.1243 36.2744 40.2171 36.5788 41.26C36.8832 42.303 37.3906 43.2755 38.0719 44.1219C38.7594 44.9606 39.2337 46.7687 39.66 48.3569C39.8181 48.9619 39.9694 49.5325 40.1 49.89C40.2567 50.3271 40.5452 50.7047 40.9257 50.9707C41.3063 51.2367 41.7601 51.378 42.2244 51.375H57.7756C58.2399 51.378 58.6937 51.2367 59.0743 50.9707C59.4548 50.7047 59.7433 50.3271 59.9 49.89C60.0306 49.5325 60.1819 48.9619 60.34 48.3569C60.7663 46.7687 61.2544 44.9606 61.9281 44.1219C62.6094 43.2755 63.1168 42.303 63.4212 41.26C63.7256 40.2171 63.821 39.1243 63.7019 38.0444C63.5085 36.1953 62.6896 34.4677 61.3806 33.1475C60.0716 31.8272 58.3511 30.9935 56.5037 30.7844C55.3851 30.6797 54.2571 30.8181 53.1969 31.19C51.1291 31.9258 48.8709 31.9258 46.8031 31.19C45.9754 30.8962 45.1033 30.7473 44.225 30.75Z" fill="white"/>
<path d="M50 35.37C47.6454 35.3261 45.339 34.6952 43.29 33.5344C43.1967 33.4987 43.1122 33.4431 43.0425 33.3715C42.9729 33.2998 42.9197 33.2138 42.8866 33.1195C42.8536 33.0252 42.8415 32.9248 42.8512 32.8254C42.8609 32.7259 42.8922 32.6298 42.9429 32.5436C42.9936 32.4575 43.0624 32.3834 43.1446 32.3266C43.2268 32.2698 43.3204 32.2316 43.4189 32.2147C43.5174 32.1977 43.6184 32.2025 43.7149 32.2285C43.8113 32.2546 43.901 32.3014 43.9775 32.3656C45.8232 33.389 47.8901 33.9482 50 33.995C52.1006 33.9438 54.1575 33.3848 55.995 32.3656C56.0715 32.3014 56.1612 32.2546 56.2576 32.2285C56.3541 32.2025 56.4551 32.1977 56.5536 32.2147C56.6521 32.2316 56.7457 32.2698 56.8279 32.3266C56.9101 32.3834 56.9789 32.4575 57.0296 32.5436C57.0803 32.6298 57.1115 32.7259 57.1213 32.8254C57.131 32.9248 57.1189 33.0252 57.0858 33.1195C57.0528 33.2138 56.9996 33.2998 56.9299 33.3715C56.8603 33.4431 56.7758 33.4987 56.6825 33.5344C54.6416 34.6908 52.3452 35.3215 50 35.37Z" fill="white"/>
<path d="M52.75 70.625H47.3187C47.1925 70.6253 47.0686 70.5908 46.9607 70.5253C46.8528 70.4598 46.7649 70.3658 46.7069 70.2537L43.2694 63.7087C43.2266 63.6228 43.2009 63.5294 43.1937 63.4338L42.3825 52.1106C42.3764 52.0165 42.3898 51.9222 42.4217 51.8335C42.4536 51.7448 42.5035 51.6636 42.5681 51.595C42.6322 51.5259 42.7099 51.4707 42.7962 51.4328C42.8825 51.395 42.9757 51.3753 43.07 51.375H56.93C57.0243 51.3753 57.1175 51.395 57.2038 51.4328C57.2901 51.4707 57.3678 51.5259 57.4319 51.595C57.4965 51.6636 57.5464 51.7448 57.5783 51.8335C57.6102 51.9222 57.6236 52.0165 57.6175 52.1106L56.875 63.4338C56.8678 63.5294 56.8421 63.6228 56.7994 63.7087L53.3619 70.2537C53.3038 70.3658 53.216 70.4598 53.1081 70.5253C53.0001 70.5908 52.8762 70.6253 52.75 70.625ZM47.7312 69.25H52.3375L55.5 63.2L56.1875 52.75H43.8125L44.5 63.2L47.7312 69.25Z" fill="white"/>
<path d="M58.25 56.875H58.195L41.695 55.5C41.5127 55.4854 41.3436 55.399 41.225 55.2597C41.1064 55.1205 41.0479 54.9398 41.0625 54.7575C41.0771 54.5752 41.1635 54.4061 41.3028 54.2875C41.442 54.1689 41.6227 54.1104 41.805 54.125L58.305 55.5C58.4873 55.5073 58.6593 55.5867 58.7831 55.7208C58.9069 55.8549 58.9723 56.0327 58.965 56.215C58.9577 56.3973 58.8783 56.5693 58.7442 56.6931C58.6101 56.8169 58.4323 56.8823 58.25 56.875Z" fill="white"/>
<path d="M58.25 60.3124H58.195L41.695 58.9374C41.6046 58.9305 41.5165 58.9057 41.4357 58.8646C41.3549 58.8235 41.2831 58.7668 41.2243 58.6978C41.1655 58.6288 41.1209 58.5488 41.0932 58.4625C41.0654 58.3762 41.055 58.2853 41.0625 58.1949C41.0694 58.1045 41.0942 58.0164 41.1353 57.9356C41.1765 57.8548 41.2332 57.783 41.3022 57.7242C41.3712 57.6654 41.4511 57.6209 41.5374 57.5931C41.6237 57.5653 41.7147 57.5549 41.805 57.5624L58.305 58.9374C58.4873 58.9447 58.6593 59.0241 58.7831 59.1582C58.9069 59.2923 58.9723 59.4701 58.965 59.6524C58.9577 59.8348 58.8783 60.0067 58.7442 60.1305C58.6101 60.2543 58.4323 60.3197 58.25 60.3124Z" fill="white"/>
<path d="M57.5625 63.75H57.5006L42.3756 62.375C42.2853 62.3668 42.1975 62.341 42.1172 62.299C42.0369 62.2569 41.9657 62.1994 41.9076 62.1299C41.8495 62.0603 41.8057 61.9799 41.7787 61.8934C41.7516 61.8069 41.7419 61.7159 41.75 61.6256C41.7581 61.5353 41.784 61.4475 41.826 61.3672C41.8681 61.2869 41.9255 61.2157 41.9951 61.1576C42.0647 61.0995 42.1451 61.0557 42.2316 61.0286C42.3181 61.0016 42.4091 60.9918 42.4994 61L57.6244 62.375C57.8067 62.3832 57.9783 62.4635 58.1015 62.5982C58.2246 62.7329 58.2891 62.9111 58.2809 63.0934C58.2727 63.2757 58.1924 63.4474 58.0577 63.5705C57.923 63.6936 57.7448 63.7582 57.5625 63.75Z" fill="white"/>
<path d="M56.1875 67.1875H56.1187L43.0562 65.8125C42.966 65.8035 42.8783 65.7768 42.7984 65.7339C42.7184 65.691 42.6477 65.6328 42.5902 65.5625C42.5328 65.4923 42.4897 65.4115 42.4635 65.3246C42.4373 65.2377 42.4285 65.1465 42.4375 65.0563C42.4465 64.966 42.4732 64.8784 42.5161 64.7984C42.559 64.7184 42.6172 64.6477 42.6875 64.5903C42.7577 64.5328 42.8386 64.4897 42.9254 64.4635C43.0123 64.4373 43.1035 64.4285 43.1937 64.4375L56.2562 65.8125C56.4386 65.8216 56.6098 65.9028 56.7323 66.0382C56.8548 66.1736 56.9185 66.352 56.9094 66.5344C56.9003 66.7167 56.8191 66.888 56.6837 67.0105C56.5483 67.1329 56.3698 67.1966 56.1875 67.1875Z" fill="white"/>
</svg>
