<svg width="44" height="44" viewBox="0 0 44 44" fill="none" xmlns="http://www.w3.org/2000/svg">
<rect width="44" height="44" fill="#053B3F"/>
<g clip-path="url(#clip0_1_468)">
<path d="M29.905 17.815C29.8159 17.4591 29.6345 17.1329 29.379 16.8696C29.1235 16.6062 28.8031 16.4149 28.45 16.315C27.16 16 22 16 22 16C22 16 16.84 16 15.55 16.345C15.1969 16.4449 14.8765 16.6362 14.621 16.8996C14.3655 17.1629 14.1841 17.4891 14.095 17.845C13.8589 19.1542 13.7434 20.4822 13.75 21.8125C13.7416 23.1528 13.8571 24.491 14.095 25.81C14.1932 26.1549 14.3787 26.4686 14.6336 26.7209C14.8885 26.9731 15.2041 27.1554 15.55 27.25C16.84 27.595 22 27.595 22 27.595C22 27.595 27.16 27.595 28.45 27.25C28.8031 27.1501 29.1235 26.9588 29.379 26.6954C29.6345 26.4321 29.8159 26.1059 29.905 25.75C30.1393 24.4507 30.2548 23.1327 30.25 21.8125C30.2584 20.4722 30.1429 19.134 29.905 17.815Z" fill="white" stroke="white" stroke-width="2" stroke-linecap="round" stroke-linejoin="round"/>
<path d="M20.3125 24.265L24.625 21.8125L20.3125 19.36V24.265Z" fill="#053B3F" stroke="#053B3F" stroke-width="2" stroke-linecap="round" stroke-linejoin="round"/>
</g>
<defs>
<clipPath id="clip0_1_468">
<rect width="18" height="18" fill="white" transform="translate(13 13)"/>
</clipPath>
</defs>
</svg>
