<svg width="44" height="44" viewBox="0 0 44 44" fill="none" xmlns="http://www.w3.org/2000/svg">
<rect width="44" height="44" fill="#053B3F"/>
<path d="M30.25 15.25C29.5318 15.7566 28.7366 16.1441 27.895 16.3975C27.4433 15.8781 26.843 15.51 26.1753 15.3429C25.5076 15.1758 24.8046 15.2179 24.1616 15.4633C23.5185 15.7088 22.9663 16.1458 22.5797 16.7153C22.1931 17.2847 21.9908 17.9592 22 18.6475V19.3975C20.682 19.4316 19.376 19.1393 18.1983 18.5466C17.0206 17.9538 16.0077 17.079 15.25 16C15.25 16 12.25 22.75 19 25.75C17.4554 26.7984 15.6154 27.3242 13.75 27.25C20.5 31 28.75 27.25 28.75 18.625C28.7493 18.4161 28.7292 18.2077 28.69 18.0025C29.4555 17.2476 29.9956 16.2945 30.25 15.25Z" fill="white"/>
</svg>
