<svg width="100" height="100" viewBox="0 0 100 100" fill="none" xmlns="http://www.w3.org/2000/svg">
<rect width="100" height="100" fill="#03272A"/>
<path opacity="0.5" d="M45.1875 52.75H34.1875C32.6687 52.75 31.4375 53.9812 31.4375 55.5V66.5C31.4375 68.0188 32.6687 69.25 34.1875 69.25H45.1875C46.7063 69.25 47.9375 68.0188 47.9375 66.5V55.5C47.9375 53.9812 46.7063 52.75 45.1875 52.75Z" fill="#4FE5B5"/>
<path d="M43.125 70.625H35.5625C35.4558 70.625 35.3505 70.6001 35.255 70.5524C35.1596 70.5047 35.0765 70.4354 35.0125 70.35C34.9485 70.2646 34.9052 70.1655 34.8861 70.0605C34.867 69.9555 34.8726 69.8475 34.9025 69.745L35.1981 68.7137C35.8161 66.5493 37.0063 64.5915 38.6433 63.0465C40.2802 61.5015 42.3035 60.4264 44.5 59.9344C44.6276 59.9084 44.7599 59.9191 44.8816 59.9653C45.0033 60.0116 45.1094 60.0914 45.1875 60.1956C45.2687 60.3031 45.3166 60.4321 45.3252 60.5665C45.3337 60.701 45.3026 60.835 45.2356 60.9519L43.3656 64.2244L44.8919 65.2419C45.0437 65.3416 45.1499 65.4974 45.1873 65.6751C45.2246 65.8529 45.1901 66.0382 45.0913 66.1906L43.4894 68.6175L43.8125 69.7587C43.8403 69.8607 43.8442 69.9677 43.824 70.0715C43.8037 70.1752 43.7598 70.2729 43.6956 70.3569C43.6288 70.4438 43.5421 70.5136 43.4429 70.5602C43.3436 70.6068 43.2346 70.6291 43.125 70.625ZM36.4769 69.25H42.2244L42.0662 68.6794C42.043 68.5853 42.0389 68.4875 42.0543 68.3918C42.0697 68.2962 42.1041 68.2046 42.1556 68.1225L43.5306 66.005L42.0388 65.0081C41.8928 64.9122 41.7888 64.7643 41.7479 64.5944C41.7071 64.4246 41.7324 64.2456 41.8188 64.0937L43.1456 61.7769C41.55 62.4036 40.1203 63.3894 38.9674 64.658C37.8144 65.9266 36.9693 67.4438 36.4975 69.0919L36.4769 69.25Z" fill="white"/>
<path d="M50 70.625C49.8448 70.6303 49.6923 70.5829 49.5675 70.4905C49.4427 70.3982 49.3528 70.2662 49.3125 70.1162L47.25 62.2719C47.2071 62.1195 47.2181 61.957 47.2811 61.8118C47.3441 61.6666 47.4553 61.5476 47.5959 61.4749C47.7365 61.4022 47.8979 61.3802 48.0528 61.4127C48.2077 61.4451 48.3467 61.5301 48.4462 61.6531C48.6399 61.8772 48.8795 62.057 49.1488 62.1802C49.4181 62.3034 49.7107 62.3672 50.0069 62.3672C50.303 62.3672 50.5957 62.3034 50.865 62.1802C51.1343 62.057 51.3739 61.8772 51.5675 61.6531C51.6676 61.5322 51.8061 61.4493 51.96 61.418C52.1138 61.3867 52.2737 61.409 52.4131 61.4812C52.5507 61.5552 52.6591 61.6737 52.7203 61.8174C52.7816 61.9611 52.792 62.1214 52.75 62.2719L50.6875 70.1162C50.6472 70.2662 50.5573 70.3982 50.4325 70.4905C50.3077 70.5829 50.1552 70.6303 50 70.625ZM49.0237 63.6125L50 67.27L50.9762 63.6125C50.3377 63.7912 49.6623 63.7912 49.0237 63.6125Z" fill="white"/>
<path d="M64.4375 70.625H56.875C56.77 70.6248 56.6665 70.6005 56.5723 70.554C56.4782 70.5075 56.3959 70.4401 56.3319 70.3569C56.2677 70.2729 56.2238 70.1752 56.2035 70.0715C56.1833 69.9677 56.1872 69.8607 56.215 69.7588L56.5244 68.6175L54.9225 66.1906C54.8236 66.0382 54.7891 65.8529 54.8265 65.6751C54.8638 65.4974 54.97 65.3416 55.1219 65.2419L56.6481 64.2244L54.8125 60.9519C54.7455 60.835 54.7144 60.701 54.723 60.5665C54.7315 60.4321 54.7794 60.3031 54.8606 60.1956C54.9395 60.0927 55.046 60.0142 55.1676 59.9692C55.2893 59.9242 55.4212 59.9145 55.5481 59.9413C57.2744 60.3355 58.898 61.0899 60.3125 62.155C62.4958 63.7878 64.0788 66.0958 64.8156 68.7206L65.125 69.745C65.1549 69.8475 65.1605 69.9555 65.1414 70.0605C65.1223 70.1655 65.079 70.2646 65.015 70.35C64.9482 70.4392 64.8608 70.5109 64.7602 70.5588C64.6596 70.6067 64.5488 70.6294 64.4375 70.625ZM57.7756 69.25H63.5231L63.4819 69.0988C62.8246 66.7632 61.4159 64.7093 59.4737 63.255C58.6637 62.6466 57.7758 62.1494 56.8337 61.7769L58.1606 64.0938C58.247 64.2456 58.2723 64.4246 58.2314 64.5944C58.1906 64.7643 58.0866 64.9122 57.9406 65.0081L56.4487 66.005L57.8237 68.1225C57.8753 68.2046 57.9097 68.2962 57.9251 68.3919C57.9404 68.4875 57.9364 68.5853 57.9131 68.6794L57.7756 69.25Z" fill="white"/>
<path d="M50 63.75C49.5013 63.7493 49.0086 63.6401 48.5563 63.43C48.104 63.2199 47.7028 62.9138 47.3806 62.5331C47.3176 62.4562 47.2708 62.3674 47.2431 62.2719L46.5556 59.8038C46.5511 59.7441 46.5535 59.6841 46.5625 59.625V55.7888C46.5625 55.682 46.5873 55.5768 46.6351 55.4813C46.6828 55.3858 46.7521 55.3028 46.8375 55.2388C46.9237 55.1736 47.024 55.1298 47.1303 55.1106C47.2366 55.0915 47.3459 55.0977 47.4494 55.1288C49.1137 55.6243 50.8863 55.6243 52.5506 55.1288C52.6541 55.0977 52.7634 55.0915 52.8697 55.1106C52.976 55.1298 53.0763 55.1736 53.1625 55.2388C53.2479 55.3028 53.3172 55.3858 53.3649 55.4813C53.4126 55.5768 53.4375 55.682 53.4375 55.7888V59.625C53.4443 59.6844 53.4443 59.7444 53.4375 59.8038L52.75 62.2444C52.7275 62.3501 52.6804 62.449 52.6125 62.5331C52.2911 62.913 51.891 63.2185 51.4399 63.4286C50.9889 63.6387 50.4976 63.7483 50 63.75ZM48.5287 61.7563C48.9224 62.1372 49.4488 62.3502 49.9966 62.3502C50.5444 62.3502 51.0707 62.1372 51.4644 61.7563L52.0625 59.5356V56.6688C50.7012 56.9438 49.2987 56.9438 47.9375 56.6688V59.5356L48.5287 61.7563Z" fill="white"/>
<path d="M42.4375 43.8125H39C38.8177 43.8125 38.6428 43.7401 38.5139 43.6111C38.3849 43.4822 38.3125 43.3073 38.3125 43.125V39.6875C38.3125 39.5052 38.3849 39.3303 38.5139 39.2014C38.6428 39.0724 38.8177 39 39 39H47.9375C48.0863 39 48.231 39.0482 48.35 39.1375C48.6361 39.3555 48.9629 39.5141 49.3112 39.6038C49.6595 39.6936 50.0223 39.7127 50.3781 39.66C50.5271 39.6367 50.6795 39.6631 50.812 39.7349C50.9445 39.8068 51.0497 39.9202 51.1115 40.0577C51.1732 40.1952 51.188 40.3492 51.1536 40.496C51.1193 40.6428 51.0376 40.7742 50.9213 40.87C48.5044 42.7764 45.5157 43.813 42.4375 43.8125ZM39.6875 42.4375H42.4375C44.5885 42.4366 46.7022 41.875 48.57 40.8081C48.2695 40.6985 47.9832 40.5531 47.7175 40.375H39.6875V42.4375Z" fill="white"/>
<path d="M61 43.8125C60.0068 43.8128 59.0232 43.6175 58.1054 43.2377C57.1877 42.8578 56.3537 42.3009 55.6513 41.5988C55.1879 41.1272 54.7839 40.6008 54.4481 40.0313C54.3878 39.9267 54.356 39.8082 54.356 39.6875C54.356 39.5668 54.3878 39.4483 54.4481 39.3438C54.5087 39.2388 54.5959 39.1518 54.701 39.0914C54.806 39.0311 54.9251 38.9995 55.0463 39H61C61.1823 39 61.3572 39.0724 61.4861 39.2014C61.6151 39.3303 61.6875 39.5052 61.6875 39.6875V43.125C61.6875 43.3073 61.6151 43.4822 61.4861 43.6111C61.3572 43.7401 61.1823 43.8125 61 43.8125ZM56.3869 40.375C56.4625 40.4575 56.545 40.5469 56.6275 40.6225C57.4814 41.485 58.5728 42.0738 59.7625 42.3138C59.9413 42.3481 60.1269 42.3756 60.3125 42.3963V40.375H56.3869Z" fill="white"/>
<path d="M50 56.875C49.7525 56.875 49.5119 56.875 49.2713 56.875H49.1681C48.9344 56.875 48.7075 56.875 48.4806 56.8063C48.2538 56.7375 48.02 56.7306 47.7931 56.6825H47.745L47.1744 56.5313C46.8856 56.4488 46.6106 56.3594 46.3494 56.2563C46.2366 56.22 46.1264 56.1763 46.0194 56.1256C45.7339 55.9899 45.4562 55.8384 45.1875 55.6719C42.9883 54.5178 41.2794 52.6088 40.375 50.2956L40.2856 50.0688C40.2444 49.9588 40.21 49.8419 40.1756 49.7319V49.6425L40.1344 49.5188C40.0587 49.2781 39.9969 49.0375 39.9419 48.79C39.8869 48.5425 39.8456 48.3156 39.8113 48.0613C39.731 47.5657 39.6896 47.0646 39.6875 46.5625V43.125C39.6875 42.9427 39.7599 42.7678 39.8889 42.6389C40.0178 42.5099 40.1927 42.4375 40.375 42.4375H42.4375C45.2049 42.4355 47.8917 41.506 50.0687 39.7975C50.1639 39.7165 50.2813 39.6661 50.4056 39.6531C50.8588 39.5946 51.2882 39.4166 51.65 39.1375C51.769 39.0483 51.9137 39 52.0625 39H55.0463C55.1674 38.9995 55.2865 39.0311 55.3916 39.0914C55.4966 39.1518 55.5838 39.2388 55.6444 39.3438C55.9122 39.8129 56.243 40.2431 56.6275 40.6225C57.4814 41.485 58.5728 42.0738 59.7625 42.3138C59.9201 42.3459 60.0615 42.4323 60.162 42.5579C60.2625 42.6835 60.3157 42.8404 60.3125 43.0013V46.5625C60.3127 47.5279 60.1761 48.4885 59.9069 49.4156C59.7757 49.8864 59.6079 50.3461 59.405 50.7906C59.3363 50.9488 59.2469 51.1275 59.1575 51.2994C59.0681 51.4713 58.9581 51.6706 58.8481 51.8631C58.7381 52.0556 58.6488 52.1794 58.5456 52.3306L58.3187 52.6469C58.2921 52.6963 58.2598 52.7424 58.2225 52.7844C58.14 52.8944 58.0506 52.9975 57.9681 53.1006C57.5398 53.6321 57.0558 54.1161 56.5244 54.5444L56.3113 54.7163L56.2356 54.7713C55.9516 54.9894 55.6555 55.1914 55.3487 55.3763C55.2387 55.4519 55.115 55.5138 54.9981 55.5825C54.8813 55.6513 54.5925 55.8025 54.3863 55.8988C54.18 55.995 54.1319 56.0156 53.9875 56.0706C53.6063 56.2309 53.2161 56.3686 52.8187 56.4831L52.2412 56.6344H52.1931C51.9662 56.6825 51.7394 56.7238 51.5056 56.7581C51.2779 56.7934 51.0484 56.8163 50.8181 56.8269C50.776 56.8466 50.7323 56.8627 50.6875 56.875C50.4585 56.8875 50.229 56.8875 50 56.875ZM49.3606 55.5H49.4019C49.8019 55.5413 50.205 55.5413 50.605 55.5H50.6875C50.8855 55.4899 51.0829 55.4693 51.2788 55.4381C51.5056 55.4381 51.7187 55.3694 51.925 55.3213H51.9663L52.4269 55.2044C52.7773 55.1026 53.1216 54.9809 53.4581 54.84L53.7881 54.6956L54.3106 54.4275L54.6131 54.2488C54.876 54.0898 55.1307 53.9177 55.3762 53.7331L55.4587 53.6644C55.512 53.6293 55.5626 53.5902 55.61 53.5475C56.0821 53.1648 56.513 52.734 56.8956 52.2619C56.9735 52.174 57.047 52.0822 57.1156 51.9869L57.1844 51.9044C57.2669 51.7944 57.315 51.7188 57.37 51.6363C57.425 51.5538 57.5694 51.3338 57.6519 51.1963C57.7483 51.0411 57.8355 50.8804 57.9131 50.715C57.9956 50.5638 58.0713 50.4263 58.1331 50.2819C58.3091 49.8922 58.4562 49.49 58.5731 49.0788C58.8149 48.2619 58.9376 47.4144 58.9375 46.5625V43.5238C57.6942 43.1767 56.562 42.5135 55.6513 41.5988C55.2804 41.2257 54.9487 40.8156 54.6612 40.375H52.2825C51.8271 40.6786 51.3149 40.8868 50.7769 40.9869C48.382 42.8174 45.4519 43.8102 42.4375 43.8125H41.0625V46.5625C41.0628 46.9974 41.0949 47.4317 41.1587 47.8619C41.1931 48.0819 41.2275 48.295 41.2756 48.5013C41.3146 48.7063 41.3674 48.9084 41.4338 49.1063L41.4681 49.23V49.3194C41.5025 49.4088 41.53 49.505 41.5644 49.5944L41.6331 49.7731C42.4028 51.7793 43.8664 53.4429 45.7581 54.4619C45.985 54.5788 46.2187 54.6956 46.4456 54.7988L46.755 54.9156C46.9959 55.0104 47.2414 55.093 47.4906 55.1631C47.635 55.2044 47.7863 55.2456 47.9513 55.28H47.9856C48.1919 55.3281 48.405 55.3625 48.6181 55.3969C48.8312 55.4313 49.0238 55.445 49.2231 55.4588L49.3606 55.5Z" fill="white"/>
<path d="M40.7737 50H40.0312C39.029 49.9982 38.0682 49.5992 37.3595 48.8905C36.6508 48.1818 36.2518 47.221 36.25 46.2188C36.2518 45.2165 36.6508 44.2557 37.3595 43.547C38.0682 42.8383 39.029 42.4393 40.0312 42.4375H40.375C40.5573 42.4375 40.7322 42.5099 40.8611 42.6389C40.9901 42.7678 41.0625 42.9427 41.0625 43.125V46.5625C41.0605 47.4263 41.1856 48.2857 41.4338 49.1131C41.4648 49.2166 41.471 49.3259 41.4519 49.4322C41.4328 49.5385 41.3889 49.6388 41.3237 49.725C41.2597 49.8104 41.1767 49.8797 41.0812 49.9274C40.9857 49.9751 40.8805 50 40.7737 50ZM39.6875 43.8125C39.1648 43.8801 38.6802 44.1224 38.3125 44.5C38.0902 44.7241 37.9149 44.9904 37.7968 45.2832C37.6788 45.576 37.6204 45.8894 37.625 46.205C37.6205 46.8224 37.8534 47.418 38.2757 47.8684C38.698 48.3189 39.2773 48.5897 39.8937 48.625C39.7553 47.9463 39.6862 47.2552 39.6875 46.5625V43.8125Z" fill="white"/>
<path d="M59.9688 50H59.2263C59.1195 50 59.0143 49.9751 58.9188 49.9274C58.8233 49.8797 58.7403 49.8104 58.6763 49.725C58.6111 49.6388 58.5673 49.5385 58.5481 49.4322C58.529 49.3259 58.5352 49.2166 58.5663 49.1131C58.8144 48.2857 58.9395 47.4263 58.9375 46.5625V43.125C58.9375 42.9427 59.0099 42.7678 59.1389 42.6389C59.2678 42.5099 59.4427 42.4375 59.625 42.4375H59.9688C60.971 42.4393 61.9318 42.8383 62.6405 43.547C63.3492 44.2557 63.7482 45.2165 63.75 46.2188C63.7482 47.221 63.3492 48.1818 62.6405 48.8905C61.9318 49.5992 60.971 49.9982 59.9688 50ZM60.3125 43.8125V46.5625C60.3138 47.2552 60.2447 47.9463 60.1063 48.625C60.7017 48.6057 61.2673 48.3598 61.6875 47.9375C61.9098 47.7134 62.0851 47.4471 62.2032 47.1543C62.3212 46.8615 62.3796 46.5481 62.375 46.2325C62.3843 45.6473 62.1801 45.0787 61.8004 44.6333C61.4208 44.1878 60.8918 43.896 60.3125 43.8125Z" fill="white"/>
<path d="M61.6875 40.375H52.0625C51.9182 40.375 51.7776 40.3296 51.6605 40.2452C51.5435 40.1609 51.4559 40.0418 51.4103 39.9049C51.3646 39.768 51.3632 39.6202 51.4063 39.4825C51.4493 39.3448 51.5346 39.2241 51.65 39.1375C52.1117 38.7912 52.4528 38.3084 52.6249 37.7575C52.797 37.2065 52.7914 36.6154 52.6089 36.0679C52.4264 35.5203 52.0762 35.0441 51.608 34.7066C51.1397 34.3691 50.5772 34.1875 50 34.1875C49.4228 34.1875 48.8603 34.3691 48.392 34.7066C47.9238 35.0441 47.5736 35.5203 47.3911 36.0679C47.2086 36.6154 47.203 37.2065 47.3751 37.7575C47.5472 38.3084 47.8883 38.7912 48.35 39.1375C48.4654 39.2241 48.5507 39.3448 48.5937 39.4825C48.6368 39.6202 48.6353 39.768 48.5897 39.9049C48.5441 40.0418 48.4565 40.1609 48.3395 40.2452C48.2224 40.3296 48.0818 40.375 47.9375 40.375H38.3125C38.1302 40.375 37.9553 40.3026 37.8264 40.1736C37.6974 40.0447 37.625 39.8698 37.625 39.6875V38.3125C37.625 35.9421 38.5666 33.6688 40.2427 31.9927C41.9188 30.3166 44.1921 29.375 46.5625 29.375H53.4375C54.7488 29.373 56.0445 29.6597 57.2326 30.2145C58.4208 30.7694 59.4723 31.5789 60.3125 32.5856L60.3538 32.6406C61.6598 34.2425 62.3736 36.2457 62.375 38.3125V39.6875C62.375 39.8698 62.3026 40.0447 62.1736 40.1736C62.0447 40.3026 61.8698 40.375 61.6875 40.375ZM53.5681 39H61V38.3125C61.0009 36.5567 60.3908 34.8552 59.2744 33.5C58.5645 32.6395 57.6731 31.9467 56.6639 31.4713C55.6548 30.9958 54.553 30.7495 53.4375 30.75H46.5625C44.5568 30.75 42.6332 31.5468 41.215 32.965C39.7968 34.3833 39 36.3068 39 38.3125V39H46.4319C46.0682 38.3731 45.8761 37.6613 45.875 36.9365C45.8739 36.2117 46.0638 35.4994 46.4255 34.8714C46.7873 34.2433 47.3082 33.7216 47.9357 33.3589C48.5632 32.9962 49.2752 32.8052 50 32.8052C50.7248 32.8052 51.4368 32.9962 52.0643 33.3589C52.6918 33.7216 53.2127 34.2433 53.5745 34.8714C53.9362 35.4994 54.1261 36.2117 54.125 36.9365C54.1239 37.6613 53.9318 38.3731 53.5681 39Z" fill="white"/>
<path d="M50 41.0625C49.1069 41.066 48.2374 40.7762 47.525 40.2375C46.8324 39.718 46.3208 38.9938 46.0626 38.1674C45.8045 37.3411 45.8129 36.4544 46.0867 35.6331C46.3605 34.8117 46.8857 34.0973 47.5881 33.5911C48.2904 33.0849 49.1342 32.8125 50 32.8125C50.8658 32.8125 51.7096 33.0849 52.4119 33.5911C53.1143 34.0973 53.6395 34.8117 53.9133 35.6331C54.1871 36.4544 54.1955 37.3411 53.9374 38.1674C53.6792 38.9938 53.1676 39.718 52.475 40.2375C51.9222 40.655 51.271 40.9226 50.5844 41.0144C50.3912 41.0458 50.1958 41.0619 50 41.0625ZM50 34.1875C49.4228 34.1875 48.8603 34.3691 48.392 34.7066C47.9238 35.0441 47.5736 35.5203 47.3911 36.0679C47.2086 36.6154 47.203 37.2065 47.3751 37.7575C47.5472 38.3084 47.8883 38.7912 48.35 39.1375C48.6361 39.3555 48.9629 39.5141 49.3112 39.6038C49.6595 39.6936 50.0223 39.7127 50.3781 39.66C50.8408 39.6012 51.2796 39.421 51.65 39.1375C52.1117 38.7912 52.4528 38.3084 52.6249 37.7575C52.797 37.2065 52.7914 36.6154 52.6089 36.0679C52.4264 35.5203 52.0762 35.0441 51.608 34.7066C51.1397 34.3691 50.5772 34.1875 50 34.1875Z" fill="white"/>
<path d="M51.375 56.875H48.625C47.1663 56.875 45.7674 56.2955 44.7359 55.2641C43.7045 54.2326 43.125 52.8337 43.125 51.375V47.9375C43.125 47.7552 43.1974 47.5803 43.3264 47.4514C43.4553 47.3224 43.6302 47.25 43.8125 47.25H56.1875C56.3698 47.25 56.5447 47.3224 56.6736 47.4514C56.8026 47.5803 56.875 47.7552 56.875 47.9375V51.375C56.875 52.8337 56.2955 54.2326 55.2641 55.2641C54.2326 56.2955 52.8337 56.875 51.375 56.875ZM44.5 48.625V51.375C44.5 52.469 44.9346 53.5182 45.7082 54.2918C46.4818 55.0654 47.531 55.5 48.625 55.5H51.375C52.469 55.5 53.5182 55.0654 54.2918 54.2918C55.0654 53.5182 55.5 52.469 55.5 51.375V48.625H44.5Z" fill="#4FE5B5"/>
<path d="M43.8125 48.625C43.7132 48.625 43.6151 48.6035 43.5249 48.562C43.4347 48.5204 43.3545 48.4598 43.29 48.3844L39.165 43.5719C39.0465 43.4333 38.9879 43.2533 39.002 43.0715C39.0162 42.8897 39.102 42.721 39.2406 42.6025C39.3792 42.484 39.5592 42.4254 39.741 42.4396C39.9228 42.4537 40.0915 42.5396 40.21 42.6781L44.335 47.4906C44.4204 47.5905 44.4754 47.7128 44.4935 47.843C44.5116 47.9731 44.492 48.1058 44.437 48.2251C44.382 48.3445 44.294 48.4456 44.1833 48.5165C44.0726 48.5874 43.9439 48.625 43.8125 48.625Z" fill="#4FE5B5"/>
<path d="M56.1875 48.625C56.0561 48.625 55.9274 48.5874 55.8167 48.5165C55.706 48.4456 55.618 48.3445 55.563 48.2251C55.508 48.1058 55.4884 47.9731 55.5065 47.8429C55.5246 47.7128 55.5796 47.5905 55.665 47.4906L59.79 42.6781C59.8487 42.6095 59.9203 42.5531 60.0008 42.5122C60.0813 42.4713 60.169 42.4466 60.259 42.4396C60.349 42.4325 60.4396 42.4433 60.5254 42.4713C60.6113 42.4992 60.6908 42.5438 60.7594 42.6025C60.828 42.6612 60.8844 42.7328 60.9253 42.8133C60.9662 42.8938 60.9909 42.9815 60.998 43.0715C61.005 43.1615 60.9942 43.2521 60.9662 43.3379C60.9383 43.4238 60.8937 43.5033 60.835 43.5719L56.71 48.3844C56.6455 48.4598 56.5653 48.5204 56.4751 48.562C56.3849 48.6035 56.2868 48.625 56.1875 48.625Z" fill="#4FE5B5"/>
<path d="M50 70.625H43.125C42.9698 70.6303 42.8174 70.5829 42.6925 70.4906C42.5677 70.3982 42.4778 70.2662 42.4375 70.1163L42.0388 68.6794C42.0155 68.5853 42.0115 68.4875 42.0268 68.3919C42.0422 68.2962 42.0766 68.2046 42.1281 68.1225L43.5031 66.005L42.0113 65.0081C41.8653 64.9122 41.7613 64.7643 41.7204 64.5944C41.6796 64.4246 41.7049 64.2456 41.7913 64.0938L44.5413 59.2813C44.6057 59.1689 44.7005 59.077 44.8148 59.0162C44.9292 58.9554 45.0583 58.9281 45.1875 58.9375H47.25C47.4052 58.9322 47.5577 58.9796 47.6825 59.072C47.8073 59.1643 47.8972 59.2963 47.9375 59.4463L50.6875 69.7588C50.7144 69.8613 50.7172 69.9686 50.6957 70.0723C50.6742 70.1761 50.6291 70.2735 50.5638 70.3569C50.4976 70.4429 50.412 70.512 50.3141 70.5586C50.2161 70.6052 50.1085 70.628 50 70.625ZM43.6475 69.25H49.1063L46.7206 60.3125H45.5863L43.3519 64.2244L44.8781 65.2419C45.03 65.3416 45.1362 65.4974 45.1735 65.6751C45.2109 65.8529 45.1764 66.0382 45.0775 66.1906L43.4756 68.6175L43.6475 69.25Z" fill="white"/>
<path d="M56.875 70.625H50C49.895 70.6248 49.7915 70.6005 49.6973 70.554C49.6032 70.5075 49.5209 70.4401 49.4569 70.3569C49.3916 70.2735 49.3464 70.1761 49.3249 70.0723C49.3035 69.9686 49.3063 69.8612 49.3331 69.7588L51.3956 61.9556C51.3956 61.9556 51.3956 61.9556 51.3956 61.9075L52.0831 59.4463C52.1226 59.2998 52.2094 59.1704 52.33 59.0784C52.4506 58.9864 52.5983 58.9368 52.75 58.9375H54.8125C54.9336 58.937 55.0528 58.9686 55.1578 59.0289C55.2628 59.0893 55.3501 59.1763 55.4106 59.2813L58.1606 64.0938C58.247 64.2456 58.2723 64.4246 58.2314 64.5944C58.1906 64.7643 58.0866 64.9122 57.9406 65.0081L56.4487 66.005L57.8237 68.1225C57.8753 68.2046 57.9097 68.2962 57.9251 68.3919C57.9404 68.4875 57.9364 68.5853 57.9131 68.6794L57.5625 70.1163C57.5222 70.2662 57.4323 70.3982 57.3075 70.4906C57.1826 70.5829 57.0302 70.6303 56.875 70.625ZM50.8937 69.25H56.3525L56.5244 68.6175L54.9225 66.1906C54.8236 66.0382 54.7891 65.8529 54.8265 65.6751C54.8638 65.4974 54.97 65.3416 55.1219 65.2419L56.6481 64.2244L54.4137 60.3125H53.2794L52.75 62.2238C52.75 62.2238 52.75 62.2238 52.75 62.2719L50.8937 69.25Z" fill="white"/>
</svg>
